<svg width="222" height="34" viewBox="0 0 222 34" fill="none" xmlns="http://www.w3.org/2000/svg">
<path d="M0.709326 16.0179C0.709326 15.6082 0.391741 15.276 0 15.276V10C3.1775 10 5.75337 12.6943 5.75337 16.0179V26.9821C5.75337 27.3918 6.07094 27.724 6.46268 27.724C6.85444 27.724 7.17201 27.3918 7.17201 26.9821V16.0179C7.17201 12.6943 9.74788 10 12.9254 10C16.1029 10 18.6787 12.6943 18.6787 16.0179V26.9821C18.6787 27.3918 18.9964 27.724 19.3881 27.724C19.7798 27.724 20.0974 27.3918 20.0974 26.9821V16.0179C20.0974 12.6943 22.6732 10 25.8507 10C29.0283 10 31.6041 12.6943 31.6041 16.0179V26.9821C31.6041 27.3918 31.9216 27.724 32.3135 27.724C32.7052 27.724 33.0228 27.3918 33.0228 26.9821V16.0179C33.0228 12.6943 35.5987 10 38.7761 10V15.276C38.3844 15.276 38.0668 15.6082 38.0668 16.0179V26.9821C38.0668 30.3056 35.4909 33 32.3135 33C29.1359 33 26.56 30.3056 26.56 26.9821V16.0179C26.56 15.6082 26.2425 15.276 25.8507 15.276C25.459 15.276 25.1414 15.6082 25.1414 16.0179V26.9821C25.1414 30.3056 22.5655 33 19.3881 33C16.2106 33 13.6348 30.3056 13.6348 26.9821V16.0179C13.6348 15.6082 13.3171 15.276 12.9254 15.276C12.5336 15.276 12.2161 15.6082 12.2161 16.0179V26.9821C12.2161 30.3056 9.64018 33 6.46268 33C3.28518 33 0.709326 30.3056 0.709326 26.9821V16.0179Z" fill="#BD7482"/>
<path d="M45.3925 31.648C45.6272 31.1787 45.8405 30.7307 46.0325 30.304C46.2459 29.8773 46.4485 29.4613 46.6405 29.056C47.0245 28.224 47.4192 27.3493 47.8245 26.432C48.2299 25.5147 48.6779 24.48 49.1685 23.328L54.0005 11.808C53.6805 11.744 53.3072 11.7013 52.8805 11.68C52.4752 11.6587 51.9952 11.648 51.4405 11.648C51.3339 11.648 51.2272 11.648 51.1205 11.648C51.0139 11.648 50.9072 11.648 50.8005 11.648L51.5365 9.504C52.3259 9.54667 53.1792 9.57867 54.0965 9.6C55.0139 9.6 55.8245 9.6 56.5285 9.6H57.7765C58.6512 11.9253 59.4512 13.9093 60.1765 15.552L64.6565 25.664C64.8485 26.0907 65.0939 26.6133 65.3925 27.232C65.7125 27.9573 66.0432 28.6933 66.3845 29.44C66.7472 30.1867 67.1099 30.9333 67.4725 31.68V32H61.1045L60.3365 29.728L60.4325 29.536L60.9445 29.632C61.3925 29.7387 61.8512 29.8347 62.3205 29.92C62.8112 29.984 63.2059 30.016 63.5045 30.016L61.4245 25.12H50.9285C50.8432 25.3547 50.7472 25.5787 50.6405 25.792C50.5552 26.0053 50.4592 26.2187 50.3525 26.432C49.6485 28.096 49.1685 29.2907 48.9125 30.016C49.1899 30.016 49.5632 29.984 50.0325 29.92C50.5232 29.8347 50.9925 29.7387 51.4405 29.632C51.5259 29.6107 51.6112 29.6 51.6965 29.6C51.8032 29.5787 51.8992 29.5573 51.9845 29.536L52.1125 29.728L51.3765 32H45.3925V31.648ZM60.4965 22.88L57.2005 15.264C57.2005 15.2427 57.1899 15.2107 57.1685 15.168C57.1472 15.1253 57.1259 15.0933 57.1045 15.072C56.8272 14.368 56.5925 13.8347 56.4005 13.472C56.2299 13.1093 56.0592 12.8 55.8885 12.544L51.8245 22.88H60.4965ZM76.9865 32.32C75.5785 32.32 74.3625 32.0107 73.3385 31.392C72.3145 30.7733 71.5252 29.888 70.9705 28.736C70.4159 27.584 70.1385 26.2293 70.1385 24.672V17.824C69.7545 17.824 69.0399 17.952 67.9945 18.208L67.5785 18.304L67.4505 18.112L68.0905 16H70.5545C70.8532 16 71.2159 15.9893 71.6425 15.968C72.0905 15.9467 72.4212 15.9147 72.6345 15.872V16.128C72.5705 17.5787 72.5385 19.3493 72.5385 21.44V24.608C72.5385 26.2933 72.9759 27.6373 73.8505 28.64C74.7252 29.6213 75.9092 30.112 77.4025 30.112C78.2985 30.112 79.1199 29.8667 79.8665 29.376C80.6345 28.8853 81.2319 28.2133 81.6585 27.36C82.0852 26.4853 82.2985 25.5253 82.2985 24.48V21.056C82.2985 19.4133 82.2452 17.824 82.1385 16.288V16H82.7145C83.0345 16 83.4079 15.9893 83.8345 15.968C84.2825 15.9467 84.6025 15.9147 84.7945 15.872L84.8265 16.128C84.7412 17.8133 84.6985 19.584 84.6985 21.44V30.176C85.0825 30.176 85.7759 30.048 86.7785 29.792C86.8639 29.7707 86.9385 29.76 87.0025 29.76C87.0879 29.7387 87.1732 29.7173 87.2585 29.696L87.3545 29.888L86.7465 32H82.4585V31.68C82.4799 31.488 82.4905 31.2853 82.4905 31.072C82.4905 30.8587 82.5012 30.6347 82.5225 30.4C82.5225 30.1867 82.5225 29.9733 82.5225 29.76C82.5439 29.5467 82.5545 29.3333 82.5545 29.12C81.9999 30.1013 81.2319 30.88 80.2505 31.456C79.2905 32.032 78.2025 32.32 76.9865 32.32ZM97.4015 32.32C95.9295 32.32 94.6069 31.9573 93.4335 31.232C92.2602 30.5067 91.3322 29.5147 90.6495 28.256C89.9669 26.976 89.6255 25.5573 89.6255 24C89.6255 22.4427 89.9669 21.0347 90.6495 19.776C91.3322 18.496 92.2602 17.4933 93.4335 16.768C94.6069 16.0427 95.9295 15.68 97.4015 15.68C98.6175 15.68 99.7055 15.9573 100.666 16.512C101.647 17.0453 102.426 17.792 103.002 18.752V11.424C102.554 11.424 101.722 11.552 100.506 11.808C100.314 11.8293 100.154 11.8613 100.026 11.904L99.8975 11.712L100.634 9.6H103.386C103.748 9.6 104.122 9.58933 104.506 9.568C104.911 9.54667 105.242 9.51467 105.498 9.472L105.53 9.728C105.508 10.1333 105.487 10.5493 105.466 10.976C105.466 11.4027 105.466 11.84 105.466 12.288C105.444 12.736 105.423 13.1947 105.402 13.664C105.402 14.1333 105.402 14.592 105.402 15.04V30.176C105.786 30.176 106.479 30.048 107.482 29.792C107.567 29.7707 107.642 29.76 107.706 29.76C107.791 29.7387 107.876 29.7173 107.962 29.696L108.058 29.888L107.45 32H103.13V31.68C103.151 31.4667 103.162 31.2427 103.162 31.008C103.183 30.7733 103.204 30.5493 103.226 30.336C103.226 30.1227 103.226 29.9093 103.226 29.696C103.247 29.4613 103.258 29.2373 103.258 29.024C102.66 30.048 101.85 30.8587 100.826 31.456C99.8015 32.032 98.6602 32.32 97.4015 32.32ZM97.6255 30.208C98.6495 30.208 99.5775 29.9413 100.41 29.408C101.242 28.8533 101.892 28.1067 102.362 27.168C102.852 26.208 103.098 25.152 103.098 24C103.098 22.848 102.852 21.8027 102.362 20.864C101.892 19.904 101.242 19.1573 100.41 18.624C99.5775 18.0693 98.6495 17.792 97.6255 17.792C96.6015 17.792 95.6629 18.0693 94.8095 18.624C93.9775 19.1573 93.3269 19.904 92.8575 20.864C92.3882 21.8027 92.1535 22.848 92.1535 24C92.1535 25.152 92.3882 26.208 92.8575 27.168C93.3269 28.1067 93.9775 28.8533 94.8095 29.408C95.6629 29.9413 96.6015 30.208 97.6255 30.208ZM112.392 31.68C112.478 29.9093 112.52 28.2027 112.52 26.56V17.824C112.136 17.824 111.411 17.952 110.344 18.208L109.928 18.304L109.832 18.112L110.44 16H112.904C113.246 16 113.619 15.9893 114.024 15.968C114.451 15.9467 114.782 15.9147 115.016 15.872L115.048 16.128C114.942 17.7493 114.888 19.52 114.888 21.44V30.176C115.187 30.176 115.859 30.0587 116.904 29.824L117.448 29.696L117.544 29.888L116.936 32H112.392V31.68ZM115.336 8.16L113.576 13.728H113.256L111.496 8.16H115.336ZM128.324 32.32C126.746 32.32 125.306 31.9573 124.004 31.232C122.724 30.5067 121.711 29.5147 120.964 28.256C120.218 26.976 119.844 25.5573 119.844 24C119.844 22.4213 120.207 21.0027 120.932 19.744C121.679 18.4853 122.692 17.4933 123.972 16.768C125.274 16.0427 126.724 15.68 128.324 15.68C129.946 15.68 131.396 16.0427 132.676 16.768C133.956 17.4933 134.959 18.4853 135.684 19.744C136.431 21.0027 136.804 22.4213 136.804 24C136.804 25.5573 136.431 26.976 135.684 28.256C134.959 29.5147 133.946 30.5067 132.644 31.232C131.343 31.9573 129.903 32.32 128.324 32.32ZM128.324 30.208C129.455 30.208 130.468 29.9413 131.364 29.408C132.282 28.8533 132.996 28.1067 133.508 27.168C134.042 26.208 134.308 25.152 134.308 24C134.308 22.848 134.042 21.8027 133.508 20.864C132.996 19.904 132.282 19.1573 131.364 18.624C130.468 18.0693 129.455 17.792 128.324 17.792C127.215 17.792 126.202 18.0693 125.284 18.624C124.388 19.1573 123.674 19.904 123.14 20.864C122.628 21.8027 122.372 22.848 122.372 24C122.372 25.152 122.628 26.208 123.14 27.168C123.674 28.1067 124.388 28.8533 125.284 29.408C126.202 29.9413 127.215 30.208 128.324 30.208ZM145.737 13.792C145.63 13.664 145.513 13.536 145.385 13.408C145.257 13.28 145.118 13.152 144.969 13.024V30.016C145.267 30.016 145.758 29.9627 146.441 29.856C147.145 29.7493 147.763 29.6427 148.297 29.536L148.425 29.728L147.689 32H141.961V31.68C142.174 30.6773 142.345 29.5147 142.473 28.192C142.601 26.8693 142.665 25.376 142.665 23.712V11.904C141.918 11.712 141.043 11.6053 140.041 11.584C139.934 11.584 139.817 11.5947 139.689 11.616C139.582 11.616 139.465 11.616 139.337 11.616L139.913 9.44C140.702 9.46133 141.513 9.49333 142.345 9.536C143.198 9.57867 143.955 9.6 144.617 9.6H146.345C146.665 10.0693 147.006 10.56 147.369 11.072C147.731 11.5627 148.094 12.064 148.457 12.576C148.819 13.088 149.182 13.6 149.545 14.112C149.929 14.6027 150.302 15.0933 150.665 15.584L158.921 26.272V11.68C158.643 11.6587 158.174 11.6907 157.513 11.776C156.873 11.8613 156.307 11.9467 155.817 12.032L155.689 11.808L156.553 9.6H161.769V9.92C161.705 10.2613 161.641 10.688 161.577 11.2C161.513 11.712 161.459 12.2667 161.417 12.864C161.267 14.1867 161.193 15.7973 161.193 17.696V32.896H160.745L145.737 13.792ZM177.306 32.896L178.234 30.528C178.106 30.592 177.968 30.6773 177.818 30.784C177.669 30.8907 177.498 30.9973 177.306 31.104C176.816 31.4667 176.272 31.7653 175.674 32C175.098 32.2133 174.416 32.32 173.626 32.32C172.133 32.32 170.768 31.968 169.53 31.264C168.314 30.56 167.354 29.5787 166.65 28.32C165.946 27.0613 165.594 25.6427 165.594 24.064C165.594 22.464 165.957 21.0347 166.682 19.776C167.408 18.496 168.389 17.4933 169.626 16.768C170.885 16.0427 172.272 15.68 173.786 15.68C175.344 15.68 176.72 16.032 177.914 16.736C179.13 17.44 180.08 18.4213 180.762 19.68C181.445 20.9173 181.786 22.3253 181.786 23.904C181.786 24.096 181.786 24.2773 181.786 24.448C181.786 24.5973 181.776 24.7573 181.754 24.928H167.994C168.101 25.952 168.4 26.88 168.89 27.712C169.402 28.5227 170.064 29.1627 170.874 29.632C171.706 30.08 172.645 30.304 173.69 30.304C174.565 30.304 175.376 30.1333 176.122 29.792C176.89 29.4293 177.53 28.9707 178.042 28.416C178.576 27.8613 178.949 27.2853 179.162 26.688L179.194 26.624L181.21 27.136L179.61 33.024H177.434L177.306 32.896ZM179.322 22.976C179.194 21.9307 178.885 21.0133 178.394 20.224C177.925 19.4347 177.274 18.8267 176.442 18.4C175.632 17.9733 174.714 17.76 173.69 17.76C172.666 17.76 171.738 17.984 170.906 18.432C170.096 18.8587 169.434 19.4667 168.922 20.256C168.432 21.0453 168.133 21.952 168.026 22.976H179.322ZM196.912 21.856C196.507 20.9813 195.984 20.2347 195.344 19.616C194.725 18.976 194.011 18.496 193.2 18.176C192.411 17.8347 191.579 17.664 190.704 17.664C189.659 17.664 188.837 17.8667 188.24 18.272C187.643 18.6773 187.344 19.2213 187.344 19.904C187.344 20.48 187.557 20.96 187.984 21.344C188.411 21.7067 188.944 22.0053 189.584 22.24C190.224 22.4533 191.088 22.6987 192.176 22.976C192.24 22.9973 192.293 23.0187 192.336 23.04C192.4 23.04 192.453 23.04 192.496 23.04C192.603 23.0613 192.699 23.0827 192.784 23.104C192.869 23.1253 192.965 23.1467 193.072 23.168C194.373 23.488 195.429 23.8293 196.24 24.192C197.072 24.5333 197.755 25.0133 198.288 25.632C198.821 26.2507 199.088 27.0613 199.088 28.064C199.088 29.472 198.512 30.5493 197.36 31.296C196.229 32.0213 194.843 32.384 193.2 32.384C192.155 32.384 191.248 32.256 190.48 32C189.712 31.744 189.008 31.424 188.368 31.04C188.197 30.9333 188.027 30.8267 187.856 30.72C187.685 30.6133 187.525 30.5173 187.376 30.432L188.304 32.896L188.208 33.024H186.128L184.432 26.4L186.096 25.92C186.523 26.7947 187.045 27.5733 187.664 28.256C188.304 28.9173 189.072 29.4507 189.968 29.856C190.885 30.24 191.92 30.432 193.072 30.432C194.139 30.432 195.013 30.24 195.696 29.856C196.379 29.472 196.72 28.9173 196.72 28.192C196.72 27.6373 196.517 27.1787 196.112 26.816C195.707 26.4533 195.184 26.1653 194.544 25.952C193.904 25.7387 192.965 25.472 191.728 25.152L191.568 25.12C190.288 24.8213 189.179 24.4907 188.24 24.128C187.323 23.744 186.555 23.2213 185.936 22.56C185.317 21.8987 185.008 21.0667 185.008 20.064C185.008 18.6773 185.531 17.6 186.576 16.832C187.621 16.064 188.955 15.68 190.576 15.68C191.493 15.68 192.293 15.7973 192.976 16.032C193.659 16.2453 194.277 16.5333 194.832 16.896C194.96 16.9813 195.077 17.056 195.184 17.12C195.312 17.1627 195.429 17.216 195.536 17.28L194.736 15.136L194.832 14.976H197.008L198.704 21.312L196.912 21.856ZM211.517 32.8L212.317 30.816C212.211 30.9013 212.093 30.9867 211.965 31.072C211.837 31.1573 211.709 31.2427 211.581 31.328C211.155 31.6267 210.717 31.8613 210.269 32.032C209.843 32.224 209.373 32.32 208.861 32.32C207.432 32.32 206.333 31.904 205.565 31.072C204.819 30.24 204.445 29.056 204.445 27.52V17.92H203.069C202.877 17.92 202.547 17.952 202.077 18.016C201.629 18.08 201.213 18.1547 200.829 18.24L200.541 18.304L200.445 18.112L201.021 16L203.133 16.032C203.496 16.032 203.795 15.9787 204.029 15.872C204.285 15.7653 204.467 15.616 204.573 15.424C204.701 15.2107 204.765 14.944 204.765 14.624V12.16C205.149 12.16 205.512 12.16 205.853 12.16C206.216 12.1387 206.547 12.1173 206.845 12.096V16H207.549C208.296 16 209.448 15.9573 211.005 15.872C212.563 15.7867 213.533 15.712 213.917 15.648L214.045 15.84L213.437 17.92H206.845V23.072C206.845 23.6053 206.835 24.1067 206.813 24.576C206.792 25.024 206.771 25.4507 206.749 25.856C206.728 26.1333 206.717 26.4 206.717 26.656C206.717 26.8907 206.717 27.1253 206.717 27.36C206.717 28.32 206.941 29.056 207.389 29.568C207.837 30.0587 208.445 30.304 209.213 30.304C209.704 30.304 210.205 30.1547 210.717 29.856C211.229 29.5573 211.699 29.184 212.125 28.736C212.552 28.288 212.851 27.84 213.021 27.392L213.213 26.944L214.973 27.328L213.821 32.928H211.645L211.517 32.8Z" fill="#130C0D"/>
</svg>
